<svg width="27" height="26" viewBox="0 0 27 26" fill="none" xmlns="http://www.w3.org/2000/svg">
<rect x="0.5" width="26" height="26" rx="13" fill="#FAF9FD"/>
<g clip-path="url(#clip0_455_3169)">
<path d="M13.4977 12.563C14.6808 12.563 15.6318 11.6065 15.6318 10.431C15.6331 9.25208 14.6808 8.29834 13.4977 8.29834C12.3229 8.29834 11.3691 9.25208 11.3691 10.431C11.3691 11.6079 12.3229 12.563 13.4977 12.563Z" fill="#2864A6"/>
<path d="M15.2099 12.9106H11.7918C11.1807 12.9106 10.6802 13.4709 10.6802 14.1583V17.5914C10.6802 17.6292 10.6994 17.6628 10.7015 17.702H16.2982C16.3023 17.6629 16.3181 17.6292 16.3181 17.5914V14.1583C16.3202 13.4709 15.8196 12.9106 15.2099 12.9106Z" fill="#2864A6"/>
<path d="M19.2383 13.5807C20.1879 13.5807 20.9494 12.8164 20.9494 11.8723C20.9494 10.9282 20.1879 10.1626 19.2383 10.1626C18.2956 10.1626 17.5327 10.9282 17.5327 11.8723C17.5307 12.8158 18.2956 13.5807 19.2383 13.5807Z" fill="#2864A6"/>
<path d="M20.6108 13.8594H17.8718C17.3802 13.8594 16.9785 14.3084 16.9785 14.8612V17.6119C16.9785 17.6414 16.9929 17.6695 16.995 17.7018H21.4842C21.4863 17.6695 21.5 17.6414 21.5 17.6119V14.8612C21.5021 14.3084 21.1011 13.8594 20.6108 13.8594Z" fill="#2864A6"/>
<path d="M7.76048 13.5807C8.70871 13.5807 9.47089 12.8164 9.47089 11.8723C9.47089 10.9282 8.70871 10.1626 7.76048 10.1626C6.81705 10.1626 6.0542 10.9282 6.0542 11.8723C6.0542 12.8164 6.81705 13.5807 7.76048 13.5807Z" fill="#2864A6"/>
<path d="M9.13229 13.8594H6.39056C5.90032 13.8594 5.5 14.3084 5.5 14.8612V17.6119C5.5 17.6414 5.51442 17.6695 5.51716 17.7018H10.0064C10.0085 17.6695 10.0215 17.6414 10.0215 17.6119V14.8612C10.0229 14.3084 9.62186 13.8594 9.13229 13.8594Z" fill="#2864A6"/>
</g>
<defs>
<clipPath id="clip0_455_3169">
<rect width="16" height="16" fill="white" transform="translate(5.5 5)"/>
</clipPath>
</defs>
</svg>
