<svg width="27" height="26" viewBox="0 0 27 26" fill="none" xmlns="http://www.w3.org/2000/svg">
<circle cx="13.5" cy="13" r="13" fill="#FAF9FD"/>
<path d="M18.1377 15.4347C17.8559 14.9492 17.4369 13.5756 17.4369 11.7815C17.4369 10.7041 17.0089 9.67074 16.247 8.90887C15.4852 8.14701 14.4519 7.71899 13.3744 7.71899C12.297 7.71899 11.2637 8.14701 10.5018 8.90887C9.73992 9.67074 9.31191 10.7041 9.31191 11.7815C9.31191 13.5761 8.89246 14.9492 8.61062 15.4347C8.53865 15.5581 8.5005 15.6983 8.5 15.8412C8.49951 15.9841 8.53671 16.1246 8.60783 16.2485C8.67895 16.3724 8.78149 16.4753 8.90511 16.547C9.02872 16.6186 9.16904 16.6564 9.31191 16.6565H11.3843C11.478 17.1151 11.7273 17.5273 12.0899 17.8233C12.4526 18.1194 12.9063 18.281 13.3744 18.281C13.8425 18.281 14.2963 18.1194 14.6589 17.8233C15.0215 17.5273 15.2708 17.1151 15.3645 16.6565H17.4369C17.5797 16.6563 17.72 16.6185 17.8435 16.5468C17.9671 16.4751 18.0696 16.3721 18.1406 16.2482C18.2117 16.1243 18.2488 15.9839 18.2483 15.8411C18.2478 15.6983 18.2096 15.5581 18.1377 15.4347ZM13.3744 17.469C13.1224 17.4689 12.8767 17.3907 12.671 17.2452C12.4653 17.0997 12.3097 16.8941 12.2257 16.6565H14.5231C14.4391 16.8941 14.2835 17.0997 14.0778 17.2452C13.8721 17.3907 13.6264 17.4689 13.3744 17.469ZM9.31191 15.844C9.70293 15.1717 10.1244 13.6137 10.1244 11.7815C10.1244 10.9195 10.4668 10.0929 11.0763 9.4834C11.6858 8.8739 12.5125 8.53149 13.3744 8.53149C14.2364 8.53149 15.063 8.8739 15.6725 9.4834C16.282 10.0929 16.6244 10.9195 16.6244 11.7815C16.6244 13.6122 17.0449 15.1701 17.4369 15.844H9.31191Z" fill="#2864A6"/>
</svg>
