<svg width="12" height="16" viewBox="0 0 12 16" fill="none" xmlns="http://www.w3.org/2000/svg">
<path d="M1.5 3.2H3C3 1.432 4.3425 0 6 0C7.6575 0 9 1.432 9 3.2H10.5C11.325 3.2 12 3.92 12 4.8V14.4C12 15.28 11.325 16 10.5 16H1.5C0.675 16 0 15.28 0 14.4V4.8C0 3.92 0.675 3.2 1.5 3.2ZM7.5 6.4C7.5 6.84 7.8375 7.2 8.25 7.2C8.6625 7.2 9 6.84 9 6.4V4.8H7.5V6.4ZM6 1.6C5.175 1.6 4.5 2.32 4.5 3.2H7.5C7.5 2.32 6.825 1.6 6 1.6ZM3 6.4C3 6.84 3.3375 7.2 3.75 7.2C4.1625 7.2 4.5 6.84 4.5 6.4V4.8H3V6.4Z" fill="#2864A6"/>
</svg>
