<svg width="26" height="30" viewBox="0 0 26 30" fill="none" xmlns="http://www.w3.org/2000/svg">
<path d="M1.84284 30C1.39749 30 1.02417 29.8403 0.722902 29.5208C0.421631 29.2014 0.270996 28.8056 0.270996 28.3333V21.6667C0.270996 20.75 0.578816 19.9653 1.19446 19.3125C1.8101 18.6597 2.55017 18.3333 3.41469 18.3333H22.2768C23.1414 18.3333 23.8814 18.6597 24.4971 19.3125C25.1127 19.9653 25.4205 20.75 25.4205 21.6667V28.3333C25.4205 28.8056 25.2699 29.2014 24.9686 29.5208C24.6674 29.8403 24.294 30 23.8487 30H1.84284ZM8.13022 16.6667C5.95584 16.6667 4.10237 15.8542 2.56982 14.2292C1.03727 12.6042 0.270996 10.6389 0.270996 8.33333C0.270996 6.02778 1.03727 4.0625 2.56982 2.4375C4.10237 0.8125 5.95584 0 8.13022 0H17.5613C19.7357 0 21.5892 0.8125 23.1217 2.4375C24.6543 4.0625 25.4205 6.02778 25.4205 8.33333C25.4205 10.6389 24.6543 12.6042 23.1217 14.2292C21.5892 15.8542 19.7357 16.6667 17.5613 16.6667H8.13022ZM8.13022 10C8.57558 10 8.94889 9.84028 9.25016 9.52083C9.55144 9.20139 9.70207 8.80556 9.70207 8.33333C9.70207 7.86111 9.55144 7.46528 9.25016 7.14583C8.94889 6.82639 8.57558 6.66667 8.13022 6.66667C7.68487 6.66667 7.31155 6.82639 7.01028 7.14583C6.70901 7.46528 6.55838 7.86111 6.55838 8.33333C6.55838 8.80556 6.70901 9.20139 7.01028 9.52083C7.31155 9.84028 7.68487 10 8.13022 10ZM17.5613 10C18.0067 10 18.38 9.84028 18.6812 9.52083C18.9825 9.20139 19.1331 8.80556 19.1331 8.33333C19.1331 7.86111 18.9825 7.46528 18.6812 7.14583C18.38 6.82639 18.0067 6.66667 17.5613 6.66667C17.1159 6.66667 16.7426 6.82639 16.4414 7.14583C16.1401 7.46528 15.9895 7.86111 15.9895 8.33333C15.9895 8.80556 16.1401 9.20139 16.4414 9.52083C16.7426 9.84028 17.1159 10 17.5613 10Z" fill="#80A128"/>
</svg>
