<svg width="19" height="17" viewBox="0 0 19 17" fill="none" xmlns="http://www.w3.org/2000/svg">
<path d="M17.597 9.12217C17.597 4.21958 13.7928 0.888672 9.55992 0.888672C5.37173 0.888672 1.52289 4.14814 1.52289 9.17575C0.987084 9.47937 0.629883 10.0509 0.629883 10.7117V12.4977C0.629883 13.48 1.43359 14.2837 2.41589 14.2837H3.3089V8.83641C3.3089 5.38048 6.104 2.58538 9.55992 2.58538C13.0159 2.58538 15.811 5.38048 15.811 8.83641V15.1767H8.66692V16.9627H15.811C16.7933 16.9627 17.597 16.159 17.597 15.1767V14.0873C18.1238 13.8104 18.49 13.2657 18.49 12.6227V10.5688C18.49 9.94373 18.1238 9.399 17.597 9.12217Z" fill="white"/>
<path d="M6.8808 10.7118C7.37399 10.7118 7.7738 10.312 7.7738 9.81879C7.7738 9.32559 7.37399 8.92578 6.8808 8.92578C6.3876 8.92578 5.98779 9.32559 5.98779 9.81879C5.98779 10.312 6.3876 10.7118 6.8808 10.7118Z" fill="white"/>
<path d="M12.2392 10.7118C12.7324 10.7118 13.1322 10.312 13.1322 9.81879C13.1322 9.32559 12.7324 8.92578 12.2392 8.92578C11.746 8.92578 11.3462 9.32559 11.3462 9.81879C11.3462 10.312 11.746 10.7118 12.2392 10.7118Z" fill="white"/>
<path d="M14.9178 8.05919C14.4891 5.51413 12.2745 3.56738 9.60439 3.56738C6.89859 3.56738 3.9874 5.80882 4.21958 9.32726C6.4253 8.42533 8.08629 6.46072 8.55958 4.06747C9.72941 6.41607 12.1316 8.0324 14.9178 8.05919Z" fill="white"/>
</svg>
