<svg width="27" height="26" viewBox="0 0 27 26" fill="none" xmlns="http://www.w3.org/2000/svg">
<rect x="0.5" width="26" height="26" rx="13" fill="#FAF9FD"/>
<path d="M13.3983 7.85593C13.1158 7.85593 12.8079 7.88983 12.4746 7.95763C12.1412 8.02542 11.8446 8.12147 11.5847 8.24576C11.4153 8.33616 11.2401 8.34181 11.0593 8.26271C10.8785 8.18362 10.7429 8.06497 10.6525 7.90678C10.5621 7.73729 10.5452 7.57062 10.6017 7.40678C10.6582 7.24294 10.7655 7.11582 10.9237 7.02542C11.2853 6.84463 11.6893 6.71186 12.1356 6.62712C12.5819 6.54237 13.0028 6.5 13.3983 6.5C14.2458 6.5 15.0395 6.66102 15.7797 6.98305C16.5198 7.30508 17.1638 7.74011 17.7119 8.28814C18.2599 8.83616 18.6949 9.48023 19.0169 10.2203C19.339 10.9605 19.5 11.7542 19.5 12.6017C19.5 13.0085 19.4548 13.4294 19.3644 13.8644C19.274 14.2994 19.1497 14.6977 18.9915 15.0593C18.9124 15.2175 18.7853 15.3277 18.6102 15.3898C18.435 15.452 18.2684 15.4379 18.1102 15.3475C17.952 15.2571 17.839 15.1215 17.7712 14.9407C17.7034 14.7599 17.709 14.5847 17.7881 14.4153C17.9011 14.1554 17.9887 13.8616 18.0508 13.5339C18.113 13.2062 18.1441 12.8955 18.1441 12.6017C18.1441 11.2797 17.6836 10.1582 16.7627 9.23729C15.8418 8.31638 14.7203 7.85593 13.3983 7.85593ZM13.3983 9.21186C13.5904 9.21186 13.7514 9.27684 13.8814 9.40678C14.0113 9.53672 14.0763 9.69774 14.0763 9.88983V9.95763C14.0763 10.1497 14.0113 10.3107 13.8814 10.4407C13.7514 10.5706 13.5904 10.6356 13.3983 10.6356C13.2062 10.6356 13.0452 10.5706 12.9153 10.4407C12.7853 10.3107 12.7203 10.1497 12.7203 9.95763V9.88983C12.7203 9.69774 12.7853 9.53672 12.9153 9.40678C13.0452 9.27684 13.2062 9.21186 13.3983 9.21186ZM13.3983 18.7034C12.6186 18.7034 11.8814 18.565 11.1864 18.2881C10.4915 18.0113 9.87288 17.6299 9.33051 17.1441C8.88983 16.7486 8.50847 16.2881 8.18644 15.7627C7.86441 15.2373 7.62429 14.6751 7.4661 14.0763C7.4096 13.8955 7.44068 13.726 7.55932 13.5678C7.67797 13.4096 7.83333 13.3192 8.02542 13.2966C8.21751 13.274 8.38701 13.3192 8.5339 13.4322C8.68079 13.5452 8.78249 13.6977 8.83898 13.8898C8.96328 14.3305 9.15254 14.7514 9.40678 15.1525C9.66102 15.5537 9.95763 15.9011 10.2966 16.1949C10.7147 16.5565 11.1893 16.839 11.7203 17.0424C12.2514 17.2458 12.8107 17.3475 13.3983 17.3475C13.8164 17.3475 14.2147 17.2994 14.5932 17.2034C14.9718 17.1073 15.3305 16.9633 15.6695 16.7712L10.1441 11.2458H7.97458C7.78249 11.2458 7.62147 11.1808 7.49153 11.0508C7.36158 10.9209 7.29661 10.7599 7.29661 10.5678V8.39831L6.68644 7.78814C6.56215 7.66384 6.5 7.50565 6.5 7.31356C6.5 7.12147 6.56215 6.96328 6.68644 6.83898C6.81073 6.71469 6.96893 6.65254 7.16102 6.65254C7.35311 6.65254 7.5113 6.71469 7.63559 6.83898L19.161 18.3644C19.2853 18.4887 19.3475 18.6469 19.3475 18.839C19.3475 19.0311 19.2853 19.1893 19.161 19.3136C19.0367 19.4379 18.8785 19.5 18.6864 19.5C18.4944 19.5 18.3362 19.4379 18.2119 19.3136L16.6525 17.7542C16.178 18.048 15.6695 18.2797 15.1271 18.4492C14.5847 18.6186 14.0085 18.7034 13.3983 18.7034Z" fill="#2864A6"/>
</svg>
