<svg width="19" height="19" viewBox="0 0 19 19" fill="none" xmlns="http://www.w3.org/2000/svg">
<path d="M9.4246 7.2381H11.3095V4.52381H14.1369V2.71429H11.3095V0H9.4246V2.71429H6.59722V4.52381H9.4246V7.2381ZM5.65476 15.381C4.61806 15.381 3.77927 16.1952 3.77927 17.1905C3.77927 18.1857 4.61806 19 5.65476 19C6.69147 19 7.53968 18.1857 7.53968 17.1905C7.53968 16.1952 6.69147 15.381 5.65476 15.381ZM15.0794 15.381C14.0427 15.381 13.2039 16.1952 13.2039 17.1905C13.2039 18.1857 14.0427 19 15.0794 19C16.1161 19 16.9643 18.1857 16.9643 17.1905C16.9643 16.1952 16.1161 15.381 15.0794 15.381ZM5.81498 12.4405L5.84325 12.3319L6.69147 10.8571H13.7128C14.4196 10.8571 15.0417 10.4862 15.3621 9.92524L19 3.58286L17.3601 2.71429H17.3507L16.314 4.52381L13.7128 9.04762H7.09673L6.97421 8.80333L4.86309 4.52381L3.96776 2.71429L3.08185 0.904762H0V2.71429H1.88492L5.27778 9.58143L4.00546 11.7981C3.85466 12.0514 3.76984 12.35 3.76984 12.6667C3.76984 13.6619 4.61806 14.4762 5.65476 14.4762H16.9643V12.6667H6.0506C5.92808 12.6667 5.81498 12.5671 5.81498 12.4405Z" fill="#2864A6"/>
</svg>
