<svg width="27" height="26" viewBox="0 0 27 26" fill="none" xmlns="http://www.w3.org/2000/svg">
<rect x="0.5" width="26" height="26" rx="13" fill="#FAF9FD"/>
<path d="M17.5457 10.0455C18.5247 10.0455 19.3184 9.25178 19.3184 8.27273C19.3184 7.29368 18.5247 6.5 17.5457 6.5C16.5666 6.5 15.7729 7.29368 15.7729 8.27273C15.7729 9.25178 16.5666 10.0455 17.5457 10.0455Z" fill="#2864A6"/>
<path d="M9.86364 11.2273V10.0455H15.1995C14.4845 9.10007 14.5614 8.1487 14.6559 7.68188H8.68773C8.03773 7.68188 7.50591 8.20779 7.50591 8.8637L7.5 19.5001L9.86364 17.1364H18.1364C18.7864 17.1364 19.3182 16.6046 19.3182 15.9546V10.6187C18.8218 10.9969 18.2132 11.2273 17.5455 11.2273H9.86364ZM14.5909 14.7728H9.86364V13.591H14.5909V14.7728ZM16.9545 13.0001H9.86364V11.8182H16.9545V13.0001Z" fill="#2864A6"/>
</svg>
