<svg width="11" height="12" viewBox="0 0 11 12" fill="none" xmlns="http://www.w3.org/2000/svg">
<path d="M10.9157 4.05425L8.92493 0.733491C8.83931 0.603774 8.71087 0.5 8.56103 0.5H2.43897C2.28913 0.5 2.1607 0.57783 2.07507 0.733491L0.0843327 4.05425C-0.0441021 4.26179 -0.0226963 4.54717 0.127144 4.72877L5.17891 11.3184C5.26454 11.4222 5.37157 11.5 5.5 11.5C5.62844 11.5 5.73546 11.4481 5.82109 11.3184L10.8729 4.72877C11.0227 4.54717 11.0441 4.26179 10.9157 4.05425ZM3.35942 4.91038L4.42971 8.77594L1.47571 4.91038H3.35942ZM5.90671 1.58962L6.65591 3.8467H4.34409L5.09329 1.58962H5.90671ZM6.69873 4.91038L5.5 9.26887L4.30128 4.91038H6.69873ZM7.64058 4.91038H9.52429L6.57029 8.77594L7.64058 4.91038ZM9.67413 3.82076H7.61917L6.86997 1.58962H8.32557L9.67413 3.82076ZM2.65303 1.58962H4.10862L3.35942 3.8467H1.32587L2.65303 1.58962Z" fill="#BD911B"/>
</svg>
