<svg width="20" height="20" viewBox="0 0 20 20" fill="none" xmlns="http://www.w3.org/2000/svg">
<rect width="20" height="20" rx="10" fill="#0077F9" fill-opacity="0.1"/>
<g clip-path="url(#clip0_1763_3149)">
<path d="M14.3682 7.5294C14.62 7.2777 14.7615 6.93629 14.7615 6.58029C14.7616 6.22428 14.6202 5.88284 14.3685 5.63107C14.1168 5.3793 13.7754 5.23784 13.4194 5.23779C13.0634 5.23775 12.7219 5.37913 12.4701 5.63083L6.1149 11.9875C6.00434 12.0977 5.92258 12.2335 5.87681 12.3827L5.24776 14.4551C5.23545 14.4963 5.23453 14.54 5.24507 14.5817C5.25562 14.6234 5.27725 14.6614 5.30766 14.6918C5.33808 14.7222 5.37615 14.7437 5.41784 14.7542C5.45952 14.7647 5.50327 14.7637 5.54443 14.7513L7.61729 14.1227C7.76641 14.0774 7.90213 13.9961 8.01252 13.8861L14.3682 7.5294Z" stroke="#0077F9" stroke-width="0.857143" stroke-linecap="round" stroke-linejoin="round"/>
<path d="M11.4282 6.6665L13.333 8.57127" stroke="#0077F9" stroke-width="0.857143" stroke-linecap="round" stroke-linejoin="round"/>
</g>
<defs>
<clipPath id="clip0_1763_3149">
<rect width="11.4286" height="11.4286" fill="white" transform="translate(4.28564 4.28564)"/>
</clipPath>
</defs>
</svg>
