<svg width="16" height="16" viewBox="0 0 16 16" fill="none" xmlns="http://www.w3.org/2000/svg">
<circle cx="8" cy="8" r="8" fill="#D9D9D9"/>
<path d="M8 4C5.72727 4 3.78636 5.45133 3 7.5C3.78636 9.54867 5.72727 11 8 11C10.2727 11 12.2136 9.54867 13 7.5C12.2136 5.45133 10.2727 4 8 4ZM8 9.83333C6.74545 9.83333 5.72727 8.788 5.72727 7.5C5.72727 6.212 6.74545 5.16667 8 5.16667C9.25455 5.16667 10.2727 6.212 10.2727 7.5C10.2727 8.788 9.25455 9.83333 8 9.83333ZM8 6.1C7.24545 6.1 6.63636 6.72533 6.63636 7.5C6.63636 8.27467 7.24545 8.9 8 8.9C8.75455 8.9 9.36364 8.27467 9.36364 7.5C9.36364 6.72533 8.75455 6.1 8 6.1Z" fill="black"/>
</svg>
