<svg width="27" height="26" viewBox="0 0 27 26" fill="none" xmlns="http://www.w3.org/2000/svg">
<g clip-path="url(#clip0_229_2507)">
<circle cx="13.5" cy="13" r="13" fill="#FAF9FD"/>
<path d="M13.5 5C9.375 5 6 8.38102 6 12.5452C6 16.3102 8.745 19.4352 12.33 20V14.7289H10.425V12.5452H12.33V10.881C12.33 8.99096 13.4475 7.9518 15.165 7.9518C15.9825 7.9518 16.8375 8.09488 16.8375 8.09488V9.95481H15.8925C14.9625 9.95481 14.67 10.5346 14.67 11.1295V12.5452H16.755L16.4175 14.7289H14.67V20C16.4373 19.7197 18.0466 18.8144 19.2074 17.4473C20.3682 16.0803 21.004 14.3416 21 12.5452C21 8.38102 17.625 5 13.5 5Z" fill="#2864A6"/>
</g>
<defs>
<clipPath id="clip0_229_2507">
<rect width="26" height="26" fill="white" transform="translate(0.5)"/>
</clipPath>
</defs>
</svg>
