<svg width="27" height="26" viewBox="0 0 27 26" fill="none" xmlns="http://www.w3.org/2000/svg">
<rect x="0.5" width="26" height="26" rx="13" fill="#FAF9FD"/>
<path d="M12.8379 13.2579C13.4053 12.2337 14.4958 11.6295 15.1295 10.7232C15.8 9.77263 15.4242 7.99684 13.5232 7.99684C12.2779 7.99684 11.6663 8.94 11.4084 9.72105L9.5 8.91789C10.0232 7.34842 11.4453 6 13.5158 6C15.2474 6 16.4337 6.78842 17.0379 7.77579C17.5537 8.62316 17.8558 10.2074 17.06 11.3863C16.1758 12.6905 15.3284 13.0884 14.8716 13.9284C14.6874 14.2674 14.6137 14.4884 14.6137 15.5789H12.4842C12.4768 15.0042 12.3884 14.0684 12.8379 13.2579ZM14.9968 18.5263C14.9968 19.3368 14.3337 20 13.5232 20C12.7126 20 12.0495 19.3368 12.0495 18.5263C12.0495 17.7158 12.7126 17.0526 13.5232 17.0526C14.3337 17.0526 14.9968 17.7158 14.9968 18.5263Z" fill="#2864A6"/>
</svg>
