<svg width="27" height="26" viewBox="0 0 27 26" fill="none" xmlns="http://www.w3.org/2000/svg">
<rect x="0.5" width="26" height="26" rx="13" fill="#FAF9FD"/>
<path d="M9.73488 9.55971C10.1655 9.54767 10.5049 9.18884 10.4928 8.75823C10.4807 8.32761 10.1219 7.98829 9.69131 8.00031L9.73488 9.55971ZM5.28165 13.46L6.06138 13.4808C6.06174 13.467 6.06174 13.453 6.06138 13.4392L5.28165 13.46ZM9.71309 18.14L9.69131 18.9197C9.70583 18.9201 9.72036 18.9201 9.73488 18.9197L9.71309 18.14ZM14.1445 13.46L14.9242 13.4392C14.913 13.0167 14.5672 12.68 14.1445 12.68V13.46ZM9.71309 12.68C9.28231 12.68 8.93309 13.0292 8.93309 13.46C8.93309 13.8908 9.28231 14.24 9.71309 14.24V12.68ZM19.6607 11.5662C20.0915 11.5662 20.4407 11.2169 20.4407 10.7862C20.4407 10.3554 20.0915 10.0062 19.6607 10.0062V11.5662ZM17.7617 10.0062C17.3309 10.0062 16.9817 10.3554 16.9817 10.7862C16.9817 11.2169 17.3309 11.5662 17.7617 11.5662V10.0062ZM17.7617 11.5662C18.1924 11.5662 18.5417 11.2169 18.5417 10.7862C18.5417 10.3554 18.1924 10.0062 17.7617 10.0062V11.5662ZM15.8626 10.0062C15.4319 10.0062 15.0826 10.3554 15.0826 10.7862C15.0826 11.2169 15.4319 11.5662 15.8626 11.5662V10.0062ZM16.9817 10.7862C16.9817 11.2169 17.3309 11.5662 17.7617 11.5662C18.1924 11.5662 18.5417 11.2169 18.5417 10.7862H16.9817ZM18.5417 8.78001C18.5417 8.34923 18.1924 8.00001 17.7617 8.00001C17.3309 8.00001 16.9817 8.34923 16.9817 8.78001H18.5417ZM18.5417 10.7862C18.5417 10.3554 18.1924 10.0062 17.7617 10.0062C17.3309 10.0062 16.9817 10.3554 16.9817 10.7862H18.5417ZM16.9817 12.7913C16.9817 13.2221 17.3309 13.5713 17.7617 13.5713C18.1924 13.5713 18.5417 13.2221 18.5417 12.7913H16.9817ZM9.69131 8.00031C6.74577 8.08259 4.4235 10.5351 4.50193 13.4808L6.06138 13.4392C6.00586 11.3541 7.64976 9.61795 9.73488 9.55971L9.69131 8.00031ZM4.50193 13.4392C4.4235 16.3849 6.74577 18.8374 9.69131 18.9197L9.73488 17.3603C7.64976 17.3021 6.00586 15.5659 6.06138 13.4808L4.50193 13.4392ZM9.73488 18.9197C12.6804 18.8374 15.0027 16.3849 14.9242 13.4392L13.3648 13.4808C13.4203 15.5659 11.7765 17.3021 9.69131 17.3603L9.73488 18.9197ZM14.1445 12.68H9.71309V14.24H14.1445V12.68ZM19.6607 10.0062H17.7617V11.5662H19.6607V10.0062ZM17.7617 10.0062H15.8626V11.5662H17.7617V10.0062ZM18.5417 10.7862V8.78001H16.9817V10.7862H18.5417ZM16.9817 10.7862V12.7913H18.5417V10.7862H16.9817Z" fill="#2864A6"/>
</svg>
