<svg width="27" height="26" viewBox="0 0 27 26" fill="none" xmlns="http://www.w3.org/2000/svg">
<g clip-path="url(#clip0_229_2498)">
<circle cx="13.5" cy="13" r="13" fill="#FAF9FD"/>
<path fill-rule="evenodd" clip-rule="evenodd" d="M16.9 5.71997H10.66C8.36249 5.71997 6.5 7.58247 6.5 9.87997V16.12C6.5 18.4174 8.36249 20.28 10.66 20.28H16.9C19.1975 20.28 21.06 18.4174 21.06 16.12V9.87997C21.06 7.58247 19.1975 5.71997 16.9 5.71997Z" stroke="#2864A6" stroke-width="1.56" stroke-linecap="round" stroke-linejoin="round"/>
<path fill-rule="evenodd" clip-rule="evenodd" d="M13.4999 16.1199C11.7767 16.1199 10.3799 14.7231 10.3799 12.9999C10.3799 11.2767 11.7767 9.87988 13.4999 9.87988C15.2231 9.87988 16.6199 11.2767 16.6199 12.9999C16.6199 13.8273 16.2911 14.6209 15.706 15.206C15.1209 15.7911 14.3273 16.1199 13.4999 16.1199Z" stroke="#2864A6" stroke-width="1.56" stroke-linecap="round" stroke-linejoin="round"/>
<path d="M17.6601 7.79988C17.0857 7.79988 16.6201 8.26551 16.6201 8.83988C16.6201 9.41426 17.0857 9.87988 17.6601 9.87988C18.2345 9.87988 18.7001 9.41426 18.7001 8.83988C18.7001 8.26551 18.2345 7.79988 17.6601 7.79988Z" fill="#2864A6"/>
<path d="M17.6596 8.31986C17.3725 8.31986 17.1396 8.55268 17.1396 8.83986C17.1396 9.12705 17.3725 9.35986 17.6596 9.35986C17.9468 9.35986 18.1796 9.12705 18.1796 8.83986C18.1796 8.55268 17.9468 8.31986 17.6596 8.31986Z" stroke="#2864A6" stroke-width="1.04" stroke-linecap="round"/>
</g>
<defs>
<clipPath id="clip0_229_2498">
<rect width="26" height="26" fill="white" transform="translate(0.5)"/>
</clipPath>
</defs>
</svg>
