<svg width="27" height="26" viewBox="0 0 27 26" fill="none" xmlns="http://www.w3.org/2000/svg">
<rect x="0.5" width="26" height="26" rx="13" fill="#FAF9FD"/>
<path d="M6.95167 14.587C6.85299 15.1522 6.70145 15.7065 6.49704 16.25C6.29263 16.7935 5.99306 17.2609 5.59834 17.6522C5.48556 17.7681 5.35516 17.8225 5.20714 17.8152C5.05912 17.808 4.92872 17.7536 4.81594 17.6522C4.70317 17.5507 4.6503 17.4275 4.65735 17.2826C4.6644 17.1377 4.71726 17.0072 4.81594 16.8913C5.23886 16.3406 5.55252 15.7355 5.75693 15.0761C5.96134 14.4167 6.06355 13.7391 6.06355 13.0435V11.8261C6.06355 11.7101 6.10584 11.6087 6.19042 11.5217C6.27501 11.4348 6.37369 11.3913 6.48646 11.3913H12.0901C12.2029 11.3913 12.3016 11.4348 12.3861 11.5217C12.4707 11.6087 12.513 11.7101 12.513 11.8261V14.1522C12.513 14.2681 12.4707 14.3696 12.3861 14.4565C12.3016 14.5435 12.2029 14.587 12.0901 14.587H6.95167ZM7.0574 13.8043H11.5192V12.1739H7.0574V13.8043ZM9.25657 8.97826C8.72087 9.60145 8.12174 10.1558 7.45917 10.6413C6.7966 11.1268 6.09174 11.5435 5.34459 11.8913C5.20362 11.9638 5.05912 11.9783 4.9111 11.9348C4.76308 11.8913 4.64678 11.8116 4.56219 11.6957C4.49171 11.5797 4.48113 11.4638 4.53047 11.3478C4.57982 11.2319 4.66792 11.1377 4.7948 11.0652C5.49966 10.7174 6.16223 10.3116 6.78251 9.84783C7.40278 9.38406 7.98077 8.85507 8.51646 8.26087C8.60105 8.15942 8.70678 8.09058 8.83365 8.05435C8.96053 8.01812 9.0874 8 9.21428 8C9.34115 8 9.46803 8.01812 9.5949 8.05435C9.72178 8.09058 9.83455 8.15942 9.93323 8.26087C10.4971 8.81159 11.1068 9.2971 11.7623 9.71739C12.4179 10.1377 13.091 10.529 13.7818 10.8913C13.9227 10.9638 14.0214 11.0725 14.0778 11.2174C14.1342 11.3623 14.1201 11.4928 14.0355 11.6087C13.9368 11.7391 13.81 11.8152 13.6549 11.837C13.4998 11.8587 13.3448 11.8333 13.1897 11.7609C12.4707 11.3841 11.7764 10.971 11.1068 10.5217C10.4372 10.0725 9.82046 9.55797 9.25657 8.97826ZM7.37459 18C7.24771 18 7.13846 17.9529 7.04683 17.8587C6.9552 17.7645 6.90938 17.6522 6.90938 17.5217V15.3913C6.90938 15.2754 6.95167 15.1739 7.03626 15.087C7.12084 15 7.21952 14.9565 7.3323 14.9565H12.4073C12.5201 14.9565 12.6188 15 12.7033 15.087C12.7879 15.1739 12.8302 15.2754 12.8302 15.3913V17.5217C12.8302 17.6522 12.7844 17.7645 12.6928 17.8587C12.6011 17.9529 12.4919 18 12.365 18C12.2381 18 12.1289 17.9529 12.0372 17.8587C11.9456 17.7645 11.8998 17.6522 11.8998 17.5217V15.8043H7.8398V17.5217C7.8398 17.6522 7.79398 17.7645 7.70235 17.8587C7.61072 17.9529 7.50146 18 7.37459 18ZM10.9059 10.9783H7.67063C7.55785 10.9783 7.46622 10.942 7.39573 10.8696C7.32525 10.7971 7.29001 10.7029 7.29001 10.587C7.29001 10.471 7.32525 10.3768 7.39573 10.3043C7.46622 10.2319 7.55785 10.1957 7.67063 10.1957H10.9059C11.0187 10.1957 11.1104 10.2319 11.1808 10.3043C11.2513 10.3768 11.2866 10.471 11.2866 10.587C11.2866 10.7029 11.2513 10.7971 11.1808 10.8696C11.1104 10.942 11.0187 10.9783 10.9059 10.9783ZM6.50761 13.3478V12.6087H12.1535V13.3478H6.50761ZM7.20542 17.6739V16.8478H12.3227V17.6739H7.20542ZM17.6303 16.1739C18.025 16.1739 18.4092 16.0797 18.7828 15.8913C19.1563 15.7029 19.4982 15.4348 19.8083 15.087V12.7826C19.4841 12.8261 19.1845 12.8768 18.9096 12.9348C18.6347 12.9928 18.3775 13.058 18.1378 13.1304C17.5034 13.3333 17.0277 13.587 16.7105 13.8913C16.3933 14.1957 16.2347 14.5507 16.2347 14.9565C16.2347 15.3333 16.3616 15.6304 16.6153 15.8478C16.8691 16.0652 17.2074 16.1739 17.6303 16.1739ZM17.144 17.6522C16.3404 17.6522 15.706 17.4167 15.2408 16.9457C14.7756 16.4746 14.543 15.8333 14.543 15.0217C14.543 14.2681 14.7756 13.6522 15.2408 13.1739C15.706 12.6957 16.4532 12.3116 17.4823 12.0217C17.8065 11.9348 18.1625 11.8551 18.5502 11.7826C18.9378 11.7101 19.3572 11.6449 19.8083 11.587C19.7801 10.9058 19.6251 10.4094 19.3431 10.0978C19.0612 9.78623 18.6242 9.63043 18.0321 9.63043C17.736 9.63043 17.4471 9.67391 17.1651 9.76087C16.8832 9.84783 16.5519 9.99275 16.1713 10.1957C16.0021 10.2971 15.8259 10.3261 15.6426 10.2826C15.4593 10.2391 15.3184 10.1304 15.2197 9.95652C15.121 9.78261 15.0999 9.59783 15.1563 9.40217C15.2126 9.20652 15.3254 9.05797 15.4946 8.95652C15.9316 8.71014 16.4003 8.51087 16.9008 8.3587C17.4012 8.20652 17.9123 8.13043 18.4339 8.13043C19.4348 8.13043 20.196 8.44928 20.7176 9.08696C21.2392 9.72464 21.5 10.6522 21.5 11.8696V16.7391C21.5 16.942 21.433 17.1123 21.2991 17.25C21.1652 17.3877 20.9995 17.4565 20.8022 17.4565H20.6965C20.5132 17.4565 20.3581 17.3949 20.2313 17.2717C20.1044 17.1486 20.0268 17 19.9986 16.8261L19.9564 16.4783C19.5616 16.8406 19.1281 17.1268 18.6559 17.337C18.1836 17.5471 17.6797 17.6522 17.144 17.6522Z" fill="#2864A6"/>
</svg>
