<svg width="27" height="26" viewBox="0 0 27 26" fill="none" xmlns="http://www.w3.org/2000/svg">
<rect x="0.5" width="26" height="26" rx="13" fill="#FAF9FD"/>
<path d="M7.425 13C7.425 11.632 8.4675 10.52 9.75 10.52H12.75V9H9.75C7.68 9 6 10.792 6 13C6 15.208 7.68 17 9.75 17H12.75V15.48H9.75C8.4675 15.48 7.425 14.368 7.425 13ZM10.5 13.8H16.5V12.2H10.5V13.8ZM17.25 9H14.25V10.52H17.25C18.5325 10.52 19.575 11.632 19.575 13C19.575 14.368 18.5325 15.48 17.25 15.48H14.25V17H17.25C19.32 17 21 15.208 21 13C21 10.792 19.32 9 17.25 9Z" fill="#2864A6"/>
</svg>
