<svg width="27" height="26" viewBox="0 0 27 26" fill="none" xmlns="http://www.w3.org/2000/svg">
<rect x="0.5" width="26" height="26" rx="13" fill="#FAF9FD"/>
<path d="M15.375 13H7.25M7.25 13L9.4375 11.125M7.25 13L9.4375 14.875" stroke="#2864A6" stroke-width="0.8125" stroke-linecap="round" stroke-linejoin="round"/>
<path d="M11.626 9.875C11.6335 8.51561 11.6938 7.77941 12.1741 7.29917C12.7233 6.75 13.6071 6.75 15.3749 6.75H15.9999C17.7676 6.75 18.6516 6.75 19.2007 7.29917C19.7499 7.84835 19.7499 8.73223 19.7499 10.5V15.5C19.7499 17.2677 19.7499 18.1516 19.2007 18.7008C18.7204 19.1811 17.9843 19.2414 16.6248 19.2489M11.626 16.125C11.6335 17.4844 11.6938 18.2206 12.1741 18.7008C12.5749 19.1016 13.1539 19.2099 14.1248 19.2392" stroke="#2864A6" stroke-width="0.8125" stroke-linecap="round"/>
</svg>
