<svg width="16" height="16" viewBox="0 0 16 16" fill="none" xmlns="http://www.w3.org/2000/svg">
<path fill-rule="evenodd" clip-rule="evenodd" d="M0 11.4954L3.938 12.9688V1.08099L0 0V11.4954Z" fill="#64B5F6"/>
<path fill-rule="evenodd" clip-rule="evenodd" d="M11.506 8.04974C10.145 8.04974 9.04297 9.2582 9.04297 10.7497C9.04297 11.1351 9.11897 11.4995 9.24997 11.8327L11.514 16.0001L13.759 11.8327C13.893 11.4995 13.967 11.1351 13.967 10.7497C13.967 9.2582 12.864 8.04974 11.506 8.04974ZM11.522 12.1057C10.6924 12.1057 10.021 11.4322 10.021 10.5997C10.021 9.76812 10.6914 9.0946 11.522 9.0946C12.3495 9.0946 13.021 9.76812 13.021 10.5997C13.021 11.4322 12.3495 12.1057 11.522 12.1057Z" fill="#FFC107"/>
<path fill-rule="evenodd" clip-rule="evenodd" d="M16 0.987587L11.031 0.0561523V6.93552C11.187 6.91545 11.343 6.88935 11.506 6.88935C13.483 6.88935 15.084 8.43605 15.084 10.3451C15.084 10.8389 14.976 11.3046 14.783 11.7322L14.398 12.3635L16 13.0631V0.987587Z" fill="#2196F3"/>
<path fill-rule="evenodd" clip-rule="evenodd" d="M7.92601 10.3451C7.92601 8.97005 8.76401 7.7917 9.96901 7.23565V0.181641L5.03101 1.08096V12.9688L8.71201 12.5181L8.22701 11.7322C8.03501 11.3047 7.92601 10.8389 7.92601 10.3451Z" fill="#42A5F5"/>
</svg>
