<svg width="29" height="23" viewBox="0 0 29 23" fill="none" xmlns="http://www.w3.org/2000/svg">
<g opacity="0.94">
<path d="M26.8721 19.8203C27.6539 19.8203 28.288 20.4545 28.2881 21.2363C28.2881 22.0182 27.654 22.6523 26.8721 22.6523H1.41602C0.634111 22.6523 0 22.0182 0 21.2363C9.14764e-05 20.4545 0.634167 19.8203 1.41602 19.8203H26.8721ZM19.7998 9.91016C20.5817 9.91016 21.2158 10.5443 21.2158 11.3262C21.2157 12.108 20.5817 12.7422 19.7998 12.7422H1.41602C0.634163 12.7422 8.37465e-05 12.108 0 11.3262C0 10.5443 0.634111 9.91016 1.41602 9.91016H19.7998ZM26.8721 0C27.654 0 28.2881 0.634111 28.2881 1.41602C28.288 2.1978 27.6539 2.83105 26.8721 2.83105H1.41602C0.634195 2.83105 0.000136307 2.1978 0 1.41602C0 0.634111 0.634111 0 1.41602 0H26.8721Z" fill="white"/>
</g>
</svg>
