<svg width="27" height="26" viewBox="0 0 27 26" fill="none" xmlns="http://www.w3.org/2000/svg">
<rect x="0.5" width="26" height="26" rx="13" fill="#FAF9FD"/>
<path d="M17.9545 12.3636V8.54545C17.9545 7.84545 17.3818 7.27273 16.6818 7.27273H16.0455V6H14.7727V7.27273H9.68182V6H8.40909V7.27273H7.77273C7.07273 7.27273 6.5 7.84545 6.5 8.54545V17.4545C6.5 18.1545 7.07273 18.7273 7.77273 18.7273H12.2273V17.4545H7.77273V11.0909H16.6818V12.3636H17.9545ZM14.5436 17.4545C14.8173 18.3773 15.67 19.0455 16.6818 19.0455C17.91 19.0455 18.9091 18.0464 18.9091 16.8182C18.9091 15.59 17.91 14.5909 16.6818 14.5909C16.0773 14.5909 15.5236 14.8327 15.1227 15.2273H16.0455V16.1818H13.5V13.6364H14.4545V14.5464C15.0273 13.9864 15.8164 13.6364 16.6818 13.6364C18.4382 13.6364 19.8636 15.0618 19.8636 16.8182C19.8636 18.5745 18.4382 20 16.6818 20C15.1418 20 13.8564 18.9055 13.5636 17.4545H14.5436Z" fill="#2864A6"/>
</svg>
