<svg width="24" height="24" viewBox="0 0 24 24" fill="none" xmlns="http://www.w3.org/2000/svg">
<g clip-path="url(#clip0_905_2919)">
<path d="M22.4979 15.0014H20.4983C20.2222 15.0014 19.9983 15.2253 19.9983 15.5013V16.5011H18.4987V11.9771C21.8002 11.701 24.2527 8.80075 23.9767 5.49926C23.7006 2.19773 20.8004 -0.254884 17.4989 0.0212003C14.3889 0.281257 11.9978 2.88243 12 6.00325H2.50192C1.1215 6.00325 0.00244141 7.1223 0.00244141 8.50273V19.5005C0.00244141 20.8809 1.1215 22 2.50192 22H6.09617C5.81985 22.7808 6.2288 23.6377 7.00963 23.9141C7.18167 23.9749 7.36341 24.004 7.54591 23.9995H15.9592C16.3499 23.994 16.7229 23.8361 16.999 23.5596L19.5785 21.0002H19.9984V21.5001C19.9984 21.7762 20.2222 22 20.4983 22H22.4979C23.3262 22 23.9976 21.3285 23.9976 20.5003V16.5011C23.9976 15.6729 23.3261 15.0014 22.4979 15.0014ZM17.9988 1.0043C20.7596 1.0043 22.9978 3.24241 22.9978 6.0033C22.9978 8.76419 20.7597 11.0023 17.9988 11.0023C15.2379 11.0023 12.9998 8.76419 12.9998 6.0033C12.9998 3.24241 15.2379 1.0043 17.9988 1.0043ZM4.00161 7.00308H6.00122V10.5024C6.00122 10.7785 5.77739 11.0023 5.50131 11.0023H4.50153C4.22544 11.0023 4.00161 10.7785 4.00161 10.5024V7.00308ZM2.50192 20.9802V21.0002C1.67366 21.0002 1.00222 20.3288 1.00222 19.5006V8.50277C1.00222 7.67452 1.67366 7.00308 2.50192 7.00308H3.00183V10.5024C3.00183 11.3306 3.67327 12.0021 4.50153 12.0021H5.50131C6.32956 12.0021 7.001 11.3306 7.001 10.5024V7.00308H12.09C12.5477 9.70056 14.7726 11.7466 17.4989 11.9771V16.5011H15.9992C15.1693 16.5011 13.6347 17.076 13.4997 19.2106L11.8 20.2103C11.5185 20.3708 11.3322 20.6577 11.3001 20.9802L2.50192 20.9802ZM19.9983 20.0004H19.3735C19.2406 19.9997 19.1129 20.0518 19.0186 20.1454L16.3141 22.8498C16.2198 22.9434 16.0921 22.9956 15.9592 22.9948H7.54089C7.32334 22.9994 7.1251 22.8706 7.04098 22.6699C6.98362 22.5115 7.00996 22.3348 7.11095 22.2C7.20323 22.0768 7.34706 22.0031 7.50087 22H11.88C12.3504 22.3167 12.9026 22.4904 13.4697 22.4999C14.386 22.4597 15.2459 22.046 15.8492 21.3551L15.1443 20.6503C14.1795 21.6151 13.2297 21.765 12.3199 21.0902L14.2545 19.9304C14.4063 19.8404 14.4994 19.677 14.4994 19.5005C14.4994 17.5859 15.8492 17.5009 15.9991 17.5009H19.9983L19.9983 20.0004ZM22.9977 20.5003C22.9977 20.7764 22.7739 21.0002 22.4978 21.0002H20.9981V16.0012H22.4978C22.7739 16.0012 22.9977 16.2251 22.9977 16.5012V20.5003Z" fill="white"/>
<path d="M4.00173 13.0018H3.00195V14.0016H4.00173V13.0018Z" fill="white"/>
<path d="M6.00125 13.0018H5.00146V14.0016H6.00125V13.0018Z" fill="white"/>
<path d="M7.00113 15.0014H3.00195V16.0012H7.00113V15.0014Z" fill="white"/>
<path d="M17.25 3.33331H18.1875M18.1875 3.33331C18.7053 3.33331 19.125 4.00489 19.125 4.83331C19.125 5.66175 18.7053 6.33331 18.1875 6.33331H17.25L18.7083 8.66665M18.1875 3.33331H19.75M17.25 4.83331H19.75" stroke="white" stroke-width="0.5" stroke-linecap="round" stroke-linejoin="round"/>
</g>
<defs>
<clipPath id="clip0_905_2919">
<rect width="24" height="24" fill="white"/>
</clipPath>
</defs>
</svg>
