<svg width="27" height="26" viewBox="0 0 27 26" fill="none" xmlns="http://www.w3.org/2000/svg">
<circle cx="13.5" cy="13" r="13" fill="#FAF9FD"/>
<path d="M6.5 7H9.45455V8.22222H7.68182V10.0556H6.5V7ZM16.5455 7H19.5V10.0556H18.3182V8.22222H16.5455V7ZM18.3182 16.7778V14.9444H19.5V18H16.5455V16.7778H18.3182ZM7.68182 14.9444V16.7778H9.45455V18H6.5V14.9444H7.68182ZM10.0455 8.83333H10.6364V16.1667H10.0455V8.83333ZM8.27273 8.83333H9.45455V16.1667H8.27273V8.83333ZM11.8182 8.83333H13V16.1667H11.8182V8.83333ZM15.9545 8.83333H16.5455V16.1667H15.9545V8.83333ZM17.1364 8.83333H17.7273V16.1667H17.1364V8.83333ZM13.5909 8.83333H15.3636V16.1667H13.5909V8.83333Z" fill="#2864A6"/>
</svg>
