<svg width="21" height="21" viewBox="0 0 21 21" fill="none" xmlns="http://www.w3.org/2000/svg">
<rect x="0.375" y="0.375" width="20.25" height="20.25" rx="10.125" stroke="#2864A6" stroke-width="0.75"/>
<path d="M5.20748 9.5625C5.20748 9.76062 5.12404 9.86625 4.88561 10.1175C4.62561 10.3912 4.26998 10.7666 4.26998 11.3928V14.875C4.26998 15.9091 5.11092 16.75 6.14498 16.75H9.89498C10.929 16.75 11.77 15.9091 11.77 14.875V11.3928C11.77 10.4725 10.975 10.0897 10.3362 9.78187C9.48154 9.37063 8.95748 9.07188 8.95748 8.15625V8.02187L8.94748 8H9.13311L9.63342 7.69438L11.3184 9.37937L12.2022 8.49563L10.7306 7.02406L11.1165 6.78813V4.25H6.28436L4.27623 5.45469L4.22998 8H5.22311C5.21717 8.05188 5.20717 8.10281 5.20717 8.15625L5.20748 9.5625ZM5.51342 6.17031L6.63061 5.5H9.86654V6.08688L8.78154 6.75H7.55092H6.61342H5.50311L5.51342 6.17031ZM7.48342 8C7.54561 8.05437 7.63904 8.18281 7.71092 8.31187C7.78311 9.94 8.98811 10.52 9.79373 10.9084C10.1175 11.0641 10.52 11.2581 10.52 11.3931V14.875C10.52 15.2197 10.2397 15.5 9.89498 15.5H6.14498C5.80029 15.5 5.51998 15.2197 5.51998 14.875V11.3928C5.51998 11.2809 5.57811 11.2041 5.79279 10.9775C6.05748 10.6981 6.45748 10.2766 6.45748 9.5625V8.15625C6.45748 8.07156 6.52904 8 6.61373 8H7.48342Z" fill="#346DAA"/>
<path d="M6.14502 13.625H7.39502V14.875H8.64502V13.625H9.89502V12.375H8.64502V11.125H7.39502V12.375H6.14502V13.625Z" fill="#346DAA"/>
<path d="M12.395 6.125C12.7402 6.125 13.02 5.84518 13.02 5.5C13.02 5.15482 12.7402 4.875 12.395 4.875C12.0498 4.875 11.77 5.15482 11.77 5.5C11.77 5.84518 12.0498 6.125 12.395 6.125Z" fill="#346DAA"/>
<path d="M14.27 6.125C14.6152 6.125 14.895 5.84518 14.895 5.5C14.895 5.15482 14.6152 4.875 14.27 4.875C13.9248 4.875 13.645 5.15482 13.645 5.5C13.645 5.84518 13.9248 6.125 14.27 6.125Z" fill="#346DAA"/>
<path d="M16.145 6.125C16.4902 6.125 16.77 5.84518 16.77 5.5C16.77 5.15482 16.4902 4.875 16.145 4.875C15.7998 4.875 15.52 5.15482 15.52 5.5C15.52 5.84518 15.7998 6.125 16.145 6.125Z" fill="#346DAA"/>
<path d="M13.3325 7.6875C13.6777 7.6875 13.9575 7.40768 13.9575 7.0625C13.9575 6.71732 13.6777 6.4375 13.3325 6.4375C12.9873 6.4375 12.7075 6.71732 12.7075 7.0625C12.7075 7.40768 12.9873 7.6875 13.3325 7.6875Z" fill="#346DAA"/>
<path d="M14.5825 8.9375C14.9277 8.9375 15.2075 8.65768 15.2075 8.3125C15.2075 7.96732 14.9277 7.6875 14.5825 7.6875C14.2373 7.6875 13.9575 7.96732 13.9575 8.3125C13.9575 8.65768 14.2373 8.9375 14.5825 8.9375Z" fill="#346DAA"/>
</svg>
