<svg width="21" height="21" viewBox="0 0 21 21" fill="none" xmlns="http://www.w3.org/2000/svg">
<rect x="0.375" y="0.375" width="20.25" height="20.25" rx="10.125" stroke="#2864A6" stroke-width="0.75"/>
<g clip-path="url(#clip0_659_3149)">
<path d="M12.375 12.375H15.1875V11.4375H12.375V12.375Z" fill="#346DAA"/>
<path d="M14.25 16.125H17.0625V15.1875H14.25V16.125Z" fill="#346DAA"/>
<path d="M13.3125 14.25H16.125V13.3125H13.3125V14.25Z" fill="#346DAA"/>
<path d="M10.97 12.375C10.9666 11.9795 10.8611 11.5915 10.6636 11.2488C10.4662 10.9061 10.1834 10.6202 9.84293 10.419L13.3124 4.40625L12.501 3.9375L8.94986 10.0903C8.51396 9.9929 8.06058 10.0063 7.63121 10.1294C7.20184 10.2525 6.81018 10.4813 6.49207 10.7948C4.73725 12.4875 4.87315 16.4447 4.87957 16.6125C4.88441 16.7335 4.93593 16.848 5.02332 16.9319C5.11071 17.0158 5.22718 17.0626 5.34832 17.0625H12.3754C12.4738 17.0625 12.5697 17.0315 12.6495 16.974C12.7293 16.9165 12.789 16.8353 12.8201 16.742C12.8512 16.6486 12.8522 16.5479 12.8229 16.454C12.7935 16.3601 12.7354 16.2778 12.6567 16.2188C10.9975 14.9737 10.97 12.4002 10.97 12.375ZM8.59207 10.9674C8.96724 10.9715 9.32639 11.1201 9.59478 11.3823C9.86318 11.6445 10.0202 12 10.0331 12.375C10.0331 12.3929 10.0339 12.4725 10.0409 12.5947L7.27558 11.3649C7.45772 11.2147 7.66791 11.1022 7.89391 11.034C8.11992 10.9657 8.35723 10.9431 8.59207 10.9674ZM10.2418 16.125C9.86721 15.7435 9.62848 15.2493 9.56238 14.7188H8.62488C8.65849 15.2176 8.81439 15.7006 9.07882 16.125H8.03665C7.84385 15.5167 7.72655 14.8869 7.68738 14.25H6.74988C6.78014 14.885 6.88479 15.5143 7.06169 16.125H5.81238C5.82691 15.2642 5.94832 13.3631 6.6574 12.1159L10.1885 13.6862C10.3583 14.5672 10.7202 15.3998 11.2484 16.125H10.2418Z" fill="#346DAA"/>
</g>
<defs>
<clipPath id="clip0_659_3149">
<rect width="15" height="15" fill="white" transform="translate(3 3)"/>
</clipPath>
</defs>
</svg>
