<svg width="24" height="24" viewBox="0 0 24 24" fill="none" xmlns="http://www.w3.org/2000/svg">
<path d="M13.0435 22.6223L10.8423 23.0625L11.2825 20.8613C11.4277 20.1353 11.7846 19.4686 12.3081 18.9451L20.411 10.8422L23.0626 13.4938L14.9597 21.5967C14.4362 22.1202 13.7695 22.4771 13.0435 22.6223Z" stroke="white" stroke-miterlimit="10" stroke-linecap="round" stroke-linejoin="round"/>
<path d="M17.8125 8.13758V6.56244" stroke="white" stroke-miterlimit="10" stroke-linecap="round" stroke-linejoin="round"/>
<path d="M12.1875 0.9375H2.8125C1.77698 0.9375 0.9375 1.77698 0.9375 2.8125V21.1875C0.9375 22.223 1.77698 23.0625 2.8125 23.0625H7.0185" stroke="white" stroke-miterlimit="10" stroke-linecap="round" stroke-linejoin="round"/>
<path d="M17.8125 6.5625H14.0625C13.027 6.5625 12.1875 5.72302 12.1875 4.6875V0.9375L17.8125 6.5625Z" stroke="white" stroke-miterlimit="10" stroke-linecap="round" stroke-linejoin="round"/>
<path d="M4.6875 9.9375H14.0625" stroke="white" stroke-miterlimit="10" stroke-linecap="round" stroke-linejoin="round"/>
<path d="M4.6875 13.6875H12.2626" stroke="white" stroke-miterlimit="10" stroke-linecap="round" stroke-linejoin="round"/>
<path d="M4.6875 17.4375H8.71739" stroke="white" stroke-miterlimit="10" stroke-linecap="round" stroke-linejoin="round"/>
</svg>
