<svg width="27" height="26" viewBox="0 0 27 26" fill="none" xmlns="http://www.w3.org/2000/svg">
<rect x="0.5" width="26" height="26" rx="13" fill="#FAF9FD"/>
<path d="M11.1667 19.7105V16.5526C10.5056 16.5 9.85741 16.4276 9.22222 16.3355C8.58704 16.2434 7.95185 16.125 7.31667 15.9803C7.0963 15.9276 6.9213 15.8026 6.79167 15.6053C6.66204 15.4079 6.62963 15.1974 6.69444 14.9737C6.75926 14.75 6.89213 14.5855 7.09306 14.4803C7.29398 14.375 7.50463 14.3487 7.725 14.4013C8.6713 14.625 9.62731 14.7763 10.5931 14.8553C11.5588 14.9342 12.5278 14.9737 13.5 14.9737C14.4722 14.9737 15.4412 14.9342 16.4069 14.8553C17.3727 14.7763 18.3287 14.625 19.275 14.4013C19.5083 14.3487 19.7222 14.375 19.9167 14.4803C20.1111 14.5855 20.2407 14.75 20.3056 14.9737C20.3704 15.1974 20.3347 15.4079 20.1986 15.6053C20.0625 15.8026 19.8843 15.9276 19.6639 15.9803C19.0287 16.125 18.3935 16.2434 17.7583 16.3355C17.1231 16.4276 16.4815 16.5 15.8333 16.5526V19.7105C15.8333 19.9342 15.7588 20.1217 15.6097 20.273C15.4606 20.4243 15.2759 20.5 15.0556 20.5H11.9444C11.7241 20.5 11.5394 20.4243 11.3903 20.273C11.2412 20.1217 11.1667 19.9342 11.1667 19.7105ZM13.5 14.1842C13.0593 14.1842 12.6898 14.0329 12.3917 13.7303C12.0935 13.4276 11.9444 13.0526 11.9444 12.6053C11.9444 12.1711 12.0935 11.7993 12.3917 11.4901C12.6898 11.1809 13.0593 11.0263 13.5 11.0263C13.9278 11.0263 14.294 11.1809 14.5986 11.4901C14.9032 11.7993 15.0556 12.1711 15.0556 12.6053C15.0556 13.0526 14.9032 13.4276 14.5986 13.7303C14.294 14.0329 13.9278 14.1842 13.5 14.1842ZM7.66667 11.8158C7.32963 11.8158 7.05093 11.7039 6.83056 11.4803C6.61019 11.2566 6.5 10.9737 6.5 10.6316C6.5 10.3026 6.61019 10.023 6.83056 9.79276C7.05093 9.5625 7.32963 9.44737 7.66667 9.44737C7.99074 9.44737 8.2662 9.5625 8.49306 9.79276C8.71991 10.023 8.83333 10.3026 8.83333 10.6316C8.83333 10.9737 8.71991 11.2566 8.49306 11.4803C8.2662 11.7039 7.99074 11.8158 7.66667 11.8158ZM19.3333 11.8158C18.9963 11.8158 18.7176 11.7039 18.4972 11.4803C18.2769 11.2566 18.1667 10.9737 18.1667 10.6316C18.1667 10.3026 18.2769 10.023 18.4972 9.79276C18.7176 9.5625 18.9963 9.44737 19.3333 9.44737C19.6574 9.44737 19.9329 9.5625 20.1597 9.79276C20.3866 10.023 20.5 10.3026 20.5 10.6316C20.5 10.9737 20.3866 11.2566 20.1597 11.4803C19.9329 11.7039 19.6574 11.8158 19.3333 11.8158ZM9.80556 8.85526C9.46852 8.85526 9.18981 8.74342 8.96944 8.51974C8.74907 8.29605 8.63889 8.01316 8.63889 7.67105C8.63889 7.34211 8.74907 7.0625 8.96944 6.83224C9.18981 6.60197 9.46852 6.48684 9.80556 6.48684C10.1296 6.48684 10.4051 6.60197 10.6319 6.83224C10.8588 7.0625 10.9722 7.34211 10.9722 7.67105C10.9722 8.01316 10.8588 8.29605 10.6319 8.51974C10.4051 8.74342 10.1296 8.85526 9.80556 8.85526ZM17.1944 8.85526C16.8574 8.85526 16.5787 8.74342 16.3583 8.51974C16.138 8.29605 16.0278 8.01316 16.0278 7.67105C16.0278 7.34211 16.138 7.0625 16.3583 6.83224C16.5787 6.60197 16.8574 6.48684 17.1944 6.48684C17.5185 6.48684 17.794 6.60197 18.0208 6.83224C18.2477 7.0625 18.3611 7.34211 18.3611 7.67105C18.3611 8.01316 18.2477 8.29605 18.0208 8.51974C17.794 8.74342 17.5185 8.85526 17.1944 8.85526ZM13.5 7.86842C13.163 7.86842 12.8843 7.75658 12.6639 7.53289C12.4435 7.30921 12.3333 7.02632 12.3333 6.68421C12.3333 6.35526 12.4435 6.07566 12.6639 5.84539C12.8843 5.61513 13.163 5.5 13.5 5.5C13.8241 5.5 14.0995 5.61513 14.3264 5.84539C14.5532 6.07566 14.6667 6.35526 14.6667 6.68421C14.6667 7.02632 14.5532 7.30921 14.3264 7.53289C14.0995 7.75658 13.8241 7.86842 13.5 7.86842Z" fill="#2864A6"/>
</svg>
