<svg width="27" height="26" viewBox="0 0 27 26" fill="none" xmlns="http://www.w3.org/2000/svg">
<rect x="0.5" width="26" height="26" rx="13" fill="#FAF9FD"/>
<path d="M18.8684 16.1667V16.7778C18.8684 17.45 18.3 18 17.6053 18H8.76316C8.06211 18 7.5 17.45 7.5 16.7778V8.22222C7.5 7.55 8.06211 7 8.76316 7H17.6053C18.3 7 18.8684 7.55 18.8684 8.22222V8.83333H13.1842C12.4832 8.83333 11.9211 9.38333 11.9211 10.0556V14.9444C11.9211 15.6167 12.4832 16.1667 13.1842 16.1667H18.8684ZM13.1842 14.9444H19.5V10.0556H13.1842V14.9444ZM15.7105 13.4167C15.1863 13.4167 14.7632 13.0072 14.7632 12.5C14.7632 11.9928 15.1863 11.5833 15.7105 11.5833C16.2347 11.5833 16.6579 11.9928 16.6579 12.5C16.6579 13.0072 16.2347 13.4167 15.7105 13.4167Z" fill="#2864A6"/>
</svg>
