<svg width="27" height="26" viewBox="0 0 27 26" fill="none" xmlns="http://www.w3.org/2000/svg">
<rect x="0.5" width="26" height="26" rx="13" fill="#FAF9FD"/>
<path fill-rule="evenodd" clip-rule="evenodd" d="M12.7836 18.1043C12.523 18.1043 12.3007 17.9109 12.2582 17.6471C12.2191 17.4338 12.0694 17.2594 11.8679 17.1929C11.7038 17.135 11.5432 17.0669 11.3873 16.9887C11.2018 16.8914 10.9792 16.9059 10.8072 17.0266C10.5991 17.1801 10.3131 17.1563 10.1318 16.9705L9.42655 16.2471C9.23675 16.0525 9.21209 15.7455 9.36826 15.5216C9.48869 15.3412 9.50604 15.1085 9.41376 14.9113C9.35295 14.7744 9.29931 14.6342 9.25308 14.4913C9.18687 14.2662 9.0041 14.0976 8.77889 14.0538C8.5073 14.0093 8.3068 13.7701 8.30469 13.488V12.5831C8.30325 12.2579 8.53222 11.9798 8.84501 11.9268C9.08229 11.8805 9.28043 11.7138 9.3711 11.4842C9.39812 11.4196 9.42655 11.3554 9.45641 11.2917C9.577 11.0536 9.56035 10.7668 9.41304 10.5451C9.22883 10.2825 9.25712 9.92169 9.47987 9.69266L9.99815 9.1611C10.2538 8.89883 10.6569 8.86489 10.9508 9.08089L10.9672 9.09256C11.1866 9.24405 11.4659 9.27149 11.7094 9.16548C11.9699 9.06931 12.1619 8.83971 12.2148 8.561L12.222 8.5362C12.2805 8.16722 12.5912 7.89615 12.9557 7.896H13.5813C13.9556 7.89582 14.275 8.1735 14.3363 8.55225L14.3477 8.60329C14.3979 8.87029 14.58 9.09126 14.8282 9.18662C15.0676 9.29196 15.3427 9.26445 15.5577 9.1137L15.5932 9.08745C15.8947 8.86458 16.3093 8.89886 16.5722 9.16839L17.0492 9.65839C17.2883 9.90497 17.3184 10.2927 17.1203 10.575C16.9651 10.8109 16.9454 11.114 17.0684 11.369L17.099 11.4419C17.1986 11.6909 17.4142 11.8714 17.672 11.9217C18.0089 11.9781 18.2567 12.276 18.2578 12.6261V13.4377C18.2577 13.7464 18.04 14.0098 17.7431 14.0604C17.4989 14.1084 17.3 14.2898 17.2248 14.5329C17.1916 14.6301 17.1547 14.7273 17.1139 14.8245C17.019 15.0382 17.0401 15.2871 17.1694 15.4808C17.3399 15.7242 17.3135 16.0585 17.1068 16.2705L16.445 16.9501C16.2557 17.1442 15.9571 17.1692 15.7397 17.0091C15.5581 16.8819 15.323 16.8679 15.1283 16.9727C14.9895 17.0432 14.8471 17.1057 14.7017 17.1601C14.4984 17.232 14.3485 17.4105 14.3093 17.6275C14.2678 17.9004 14.0397 18.1023 13.7704 18.1043H12.7836Z" stroke="#2864A6" stroke-width="1.09375" stroke-linecap="round" stroke-linejoin="round"/>
<path fill-rule="evenodd" clip-rule="evenodd" d="M14.9403 13C14.9403 13.9395 14.1977 14.7011 13.2817 14.7011C12.3656 14.7011 11.623 13.9395 11.623 13C11.623 12.0604 12.3656 11.2988 13.2817 11.2988C14.1977 11.2988 14.9403 12.0604 14.9403 13Z" stroke="#2864A6" stroke-width="1.09375" stroke-linecap="round" stroke-linejoin="round"/>
</svg>
