<svg width="20" height="17" viewBox="0 0 20 17" fill="none" xmlns="http://www.w3.org/2000/svg">
<path d="M14.7364 6.25184L10.7545 0.376186C10.5818 0.125395 10.2909 0 10 0C9.70909 0 9.41818 0.125395 9.24545 0.385142L5.26364 6.25184H0.909091C0.409091 6.25184 0 6.6549 0 7.14752C0 7.22814 0.00909088 7.30875 0.0363636 7.38936L2.34545 15.6923C2.55455 16.4447 3.25455 17 4.09091 17H15.9091C16.7455 17 17.4455 16.4447 17.6636 15.6923L19.9727 7.38936L20 7.14752C20 6.6549 19.5909 6.25184 19.0909 6.25184H14.7364ZM7.27273 6.25184L10 2.31085L12.7273 6.25184H7.27273ZM10 13.4173C9 13.4173 8.18182 12.6112 8.18182 11.6259C8.18182 10.6407 9 9.83456 10 9.83456C11 9.83456 11.8182 10.6407 11.8182 11.6259C11.8182 12.6112 11 13.4173 10 13.4173Z" fill="#2864A6"/>
</svg>
