<svg width="27" height="26" viewBox="0 0 27 26" fill="none" xmlns="http://www.w3.org/2000/svg">
<rect x="0.5" width="26" height="26" rx="13" fill="#FAF9FD"/>
<path fill-rule="evenodd" clip-rule="evenodd" d="M18.0504 11.9387C17.8695 10.0837 16.7729 7.16699 13.3837 7.16699C9.99452 7.16699 8.89785 10.0837 8.71702 11.9387C8.08265 12.1794 7.66421 12.7885 7.66701 13.467V14.2837C7.66701 15.1857 8.39829 15.917 9.30035 15.917C10.2024 15.917 10.9337 15.1857 10.9337 14.2837V13.467C10.9308 12.8031 10.5277 12.2066 9.91285 11.9562C10.0295 10.8828 10.6012 8.33366 13.3837 8.33366C16.1662 8.33366 16.732 10.8828 16.8487 11.9562C16.2351 12.2071 15.8341 12.8041 15.8337 13.467V14.2837C15.8362 14.9107 16.1963 15.4814 16.7612 15.7537C16.5162 16.2145 15.892 16.8387 14.3579 17.0253C14.0512 16.5596 13.4579 16.3761 12.9418 16.5872C12.4257 16.7983 12.1311 17.3451 12.2388 17.8922C12.3464 18.4393 12.8261 18.8337 13.3837 18.8337C13.8243 18.8312 14.226 18.5808 14.422 18.1862C16.9245 17.9003 17.7237 16.6112 17.9745 15.8528C18.6531 15.633 19.1095 14.9969 19.1004 14.2837V13.467C19.1032 12.7885 18.6847 12.1794 18.0504 11.9387ZM9.76702 14.2837C9.76702 14.5414 9.55809 14.7503 9.30035 14.7503C9.04262 14.7503 8.83369 14.5414 8.83369 14.2837V13.467C8.83369 13.3003 8.92263 13.1462 9.06702 13.0628C9.21141 12.9795 9.3893 12.9795 9.53369 13.0628C9.67807 13.1462 9.76702 13.3003 9.76702 13.467V14.2837ZM17.0004 13.467C17.0004 13.2093 17.2093 13.0003 17.467 13.0003C17.7248 13.0003 17.9337 13.2093 17.9337 13.467V14.2837C17.9337 14.5414 17.7248 14.7503 17.467 14.7503C17.2093 14.7503 17.0004 14.5414 17.0004 14.2837V13.467Z" fill="#2864A6"/>
</svg>
