<svg width="21" height="21" viewBox="0 0 21 21" fill="none" xmlns="http://www.w3.org/2000/svg">
<rect x="0.377298" y="0.377298" width="20.2454" height="20.2454" rx="10.1227" stroke="#2864A6" stroke-width="0.754595"/>
<g clip-path="url(#clip0_659_3128)">
<path d="M9.42088 8.70912C9.59149 8.70912 9.72997 8.57088 9.72997 8.40006C9.72997 8.22945 9.59151 8.091 9.42088 8.091C9.25027 8.091 9.11182 8.22945 9.11182 8.40006C9.11179 8.57088 9.25027 8.70912 9.42088 8.70912Z" fill="#346DAA"/>
<path d="M11.7077 8.70912C11.8786 8.70912 12.0166 8.57088 12.0166 8.40006C12.0166 8.22945 11.8786 8.091 11.7077 8.091C11.5369 8.091 11.3987 8.22945 11.3987 8.40006C11.3987 8.57088 11.5369 8.70912 11.7077 8.70912Z" fill="#346DAA"/>
<path d="M10.5361 10.4344C11.1699 10.4344 11.7512 10.1251 12.1094 9.62872H8.9624C9.32125 10.1251 9.90296 10.4344 10.5361 10.4344Z" fill="#346DAA"/>
<path d="M15.1589 8.07076C14.9934 4.67402 11.1023 2.95404 10.5644 2.95404C10.0263 2.95404 6.13526 4.67402 5.96951 8.07076C5.82089 11.1197 6.46654 18.0459 10.5644 18.0459C14.6621 18.0459 15.3075 11.1197 15.1589 8.07076ZM10.1652 5.41367C10.2867 5.39799 10.4101 5.38953 10.5361 5.38953C10.7062 5.38953 10.873 5.40476 11.0352 5.43312C11.0517 5.4524 11.069 5.47442 11.0864 5.50065C11.1597 5.6116 11.2334 5.78622 11.234 6.06226C11.2342 6.27099 11.1902 6.53899 11.0661 6.8764C10.6749 6.56165 10.4522 6.27202 10.3261 6.03305C10.1889 5.7729 10.1641 5.57157 10.1639 5.45514C10.1639 5.43969 10.1643 5.42593 10.1652 5.41367ZM9.88574 5.46295C9.88657 5.62047 9.92341 5.86666 10.0801 6.16302C10.1499 6.29575 10.2439 6.438 10.3684 6.58724C10.2439 6.53686 10.1195 6.49008 10.0022 6.44077C9.80065 6.35588 9.62367 6.26085 9.50367 6.13404C9.4433 6.07072 9.39614 6.00004 9.36224 5.91388C9.33454 5.84255 9.31673 5.75934 9.31125 5.66091C9.49327 5.57579 9.68548 5.5089 9.88574 5.46295ZM13.0289 14.2808C12.9692 14.3475 12.8667 14.3532 12.7998 14.2935L9.73524 11.5515C9.92471 11.5977 10.1207 11.6275 10.321 11.6403L11.0388 12.2823L11.8434 11.3833C11.9967 11.3185 12.1445 11.2425 12.2852 11.1563C12.3409 11.2171 12.3435 11.3111 12.2872 11.3737L11.2808 12.4988L13.0162 14.0518C13.0831 14.1115 13.0888 14.214 13.0289 14.2808ZM14.1299 8.9681C14.0312 9.06635 13.8977 9.12625 13.7474 9.12645C13.6855 9.12645 13.6259 9.11543 13.5683 9.09532L13.349 9.01804L13.2725 9.23778C13.0759 9.80385 12.7082 10.2909 12.2313 10.6358C11.7545 10.9808 11.1701 11.1838 10.5361 11.184C9.9044 11.1838 9.32224 10.9827 8.84638 10.6404C8.37092 10.2981 8.003 9.81484 7.80424 9.25279L7.73226 9.04934L7.52439 9.10629C7.47676 9.11944 7.42933 9.12642 7.38108 9.12642C7.23078 9.12619 7.09719 9.06629 6.99877 8.96808C6.90035 8.86945 6.84024 8.73565 6.84024 8.58556C6.84042 8.4357 6.90035 8.30167 6.99877 8.20325C7.09722 8.10504 7.23078 8.0449 7.38108 8.0447C7.39039 8.0447 7.40457 8.04555 7.42405 8.04703L7.63935 8.06395L7.67151 7.85077C7.7765 7.15454 8.12939 6.53937 8.6381 6.09778C8.76508 5.98748 8.90185 5.88803 9.04667 5.80102C9.05937 5.87978 9.07862 5.95344 9.1055 6.02117C9.14827 6.12829 9.20841 6.22144 9.27909 6.30102C9.40377 6.44033 9.55938 6.53834 9.72194 6.61878C9.96624 6.73881 10.23 6.82178 10.4514 6.92527C10.5624 6.97671 10.6621 7.0326 10.744 7.09694C10.8259 7.16153 10.8896 7.23348 10.9354 7.32091C10.9599 7.36813 11.0088 7.39713 11.0619 7.39563C11.1153 7.39436 11.1627 7.36323 11.1852 7.31498C11.4254 6.79381 11.512 6.38397 11.512 6.06221C11.5124 5.8427 11.4711 5.66486 11.4129 5.52494C11.794 5.646 12.1409 5.84311 12.4358 6.09967C12.9449 6.54252 13.2975 7.15917 13.4011 7.8569L13.4354 8.087L13.6655 8.05186C13.6962 8.0472 13.7231 8.04467 13.7474 8.04467C13.8977 8.04487 14.0313 8.10498 14.13 8.20322C14.2282 8.30164 14.2881 8.43567 14.2885 8.58553C14.288 8.73568 14.2281 8.86948 14.1299 8.9681Z" fill="#346DAA"/>
</g>
<defs>
<clipPath id="clip0_659_3128">
<rect width="15.0919" height="15.0919" fill="white" transform="translate(3.01831 2.95404)"/>
</clipPath>
</defs>
</svg>
