<svg width="27" height="26" viewBox="0 0 27 26" fill="none" xmlns="http://www.w3.org/2000/svg">
<rect x="0.5" width="26" height="26" rx="13" fill="#FAF9FD"/>
<path d="M16.5 19C15.92 19 15.395 18.8525 14.925 18.5575C14.455 18.2625 14.095 17.875 13.845 17.395C13.785 17.285 13.7775 17.17 13.8225 17.05C13.8675 16.93 13.945 16.845 14.055 16.795C14.165 16.745 14.2775 16.7375 14.3925 16.7725C14.5075 16.8075 14.595 16.88 14.655 16.99C14.825 17.32 15.0725 17.5875 15.3975 17.7925C15.7225 17.9975 16.09 18.1 16.5 18.1C17.08 18.1 17.575 17.895 17.985 17.485C18.395 17.075 18.6 16.58 18.6 16C18.6 15.42 18.395 14.925 17.985 14.515C17.575 14.105 17.08 13.9 16.5 13.9C16.21 13.9 15.94 13.9525 15.69 14.0575C15.44 14.1625 15.22 14.31 15.03 14.5H15.45C15.58 14.5 15.6875 14.5425 15.7725 14.6275C15.8575 14.7125 15.9 14.82 15.9 14.95C15.9 15.08 15.8575 15.1875 15.7725 15.2725C15.6875 15.3575 15.58 15.4 15.45 15.4H14.1C13.93 15.4 13.7875 15.3425 13.6725 15.2275C13.5575 15.1125 13.5 14.97 13.5 14.8V13.45C13.5 13.32 13.5425 13.2125 13.6275 13.1275C13.7125 13.0425 13.82 13 13.95 13C14.08 13 14.1875 13.0425 14.2725 13.1275C14.3575 13.2125 14.4 13.32 14.4 13.45V13.855C14.67 13.595 14.985 13.3875 15.345 13.2325C15.705 13.0775 16.09 13 16.5 13C17.33 13 18.0375 13.2925 18.6225 13.8775C19.2075 14.4625 19.5 15.17 19.5 16C19.5 16.83 19.2075 17.5375 18.6225 18.1225C18.0375 18.7075 17.33 19 16.5 19ZM10.5 10.6H15.3C15.47 10.6 15.6125 10.5425 15.7275 10.4275C15.8425 10.3125 15.9 10.17 15.9 10C15.9 9.83 15.8425 9.6875 15.7275 9.5725C15.6125 9.4575 15.47 9.4 15.3 9.4H10.5C10.33 9.4 10.1875 9.4575 10.0725 9.5725C9.9575 9.6875 9.9 9.83 9.9 10C9.9 10.17 9.9575 10.3125 10.0725 10.4275C10.1875 10.5425 10.33 10.6 10.5 10.6ZM8.7 17.8C8.37 17.8 8.0875 17.6825 7.8525 17.4475C7.6175 17.2125 7.5 16.93 7.5 16.6V8.2C7.5 7.87 7.6175 7.5875 7.8525 7.3525C8.0875 7.1175 8.37 7 8.7 7H17.1C17.43 7 17.7125 7.1175 17.9475 7.3525C18.1825 7.5875 18.3 7.87 18.3 8.2V11.545C18.01 11.435 17.715 11.35 17.415 11.29C17.115 11.23 16.81 11.2 16.5 11.2C16.08 11.2 15.675 11.2525 15.285 11.3575C14.895 11.4625 14.525 11.61 14.175 11.8H10.5C10.33 11.8 10.1875 11.8575 10.0725 11.9725C9.9575 12.0875 9.9 12.23 9.9 12.4C9.9 12.57 9.9575 12.7125 10.0725 12.8275C10.1875 12.9425 10.33 13 10.5 13H12.75C12.61 13.18 12.48 13.37 12.36 13.57C12.24 13.77 12.135 13.98 12.045 14.2H10.5C10.33 14.2 10.1875 14.2575 10.0725 14.3725C9.9575 14.4875 9.9 14.63 9.9 14.8C9.9 14.97 9.9575 15.1125 10.0725 15.2275C10.1875 15.3425 10.33 15.4 10.5 15.4H11.73C11.71 15.5 11.7 15.5975 11.7 15.6925V16C11.7 16.31 11.73 16.615 11.79 16.915C11.85 17.215 11.935 17.51 12.045 17.8H8.7Z" fill="#2864A6"/>
</svg>
