<svg width="12" height="10" viewBox="0 0 12 10" fill="none" xmlns="http://www.w3.org/2000/svg">
<path d="M11.8462 4.25743C11.9487 4.37058 12 4.50495 12 4.66054C12 4.81612 11.9487 4.95049 11.8462 5.06365L9.86014 7.05799C9.75758 7.17115 9.62704 7.22772 9.46853 7.22772C9.31002 7.22772 9.17949 7.17115 9.07692 7.05799L8.27972 6.26591C8.16783 6.15276 8.11189 6.01839 8.11189 5.8628C8.11189 5.70721 8.16783 5.57284 8.27972 5.45969C8.39161 5.35596 8.52448 5.3041 8.67832 5.3041C8.83217 5.3041 8.96504 5.35596 9.07692 5.45969L9.46853 5.85573L11.049 4.25743C11.1608 4.1537 11.2937 4.10184 11.4476 4.10184C11.6014 4.10184 11.7343 4.1537 11.8462 4.25743ZM5.21678 9.85856L3.81818 8.57143C3.14685 7.95851 2.5711 7.4116 2.09091 6.93069C1.61072 6.44979 1.21445 5.99717 0.902098 5.57284C0.589744 5.14851 0.361305 4.73833 0.216783 4.34229C0.0722611 3.94625 0 3.53135 0 3.0976C0 2.21122 0.293706 1.47336 0.881119 0.884017C1.46853 0.294672 2.20047 0 3.07692 0C3.56177 0 4.02331 0.101367 4.46154 0.304102C4.89977 0.506836 5.27739 0.796794 5.59441 1.17397C5.91142 0.796794 6.28904 0.506836 6.72727 0.304102C7.1655 0.101367 7.62704 0 8.11189 0C8.90443 0 9.56876 0.24281 10.1049 0.72843C10.641 1.21405 10.9744 1.78218 11.1049 2.43281C10.9184 2.35738 10.7226 2.31023 10.5175 2.29137C10.3124 2.27251 10.1026 2.26308 9.88811 2.26308C9.09557 2.26308 8.3683 2.58604 7.70629 3.23197C7.04429 3.87789 6.71329 4.68647 6.71329 5.65771C6.71329 6.11033 6.81119 6.57001 7.00699 7.03678C7.2028 7.50354 7.47786 7.88307 7.83217 8.17539C7.65501 8.33569 7.42424 8.54078 7.13986 8.79066C6.85548 9.04055 6.61072 9.25978 6.40559 9.44837L5.95804 9.85856C5.85548 9.95285 5.73193 10 5.58741 10C5.44289 10 5.31935 9.95285 5.21678 9.85856Z" fill="#EA4141"/>
</svg>
